{
  "accessors": [
    {
      "bufferView": 2,
      "componentType": 5126,
      "count": 65532,
      "max": [
        0.74527698755264282,
        10.211189270019531,
        1.1516159772872925
      ],
      "min": [
        -1.4237550497055054,
        9.0246000289916992,
        -1.1215159893035889
      ],
      "type": "VEC3"
    },
    {
      "bufferView": 2,
      "byteOffset": 786384,
      "componentType": 5126,
      "count": 65532,
      "max": [
        0.99980676174163818,
        0.9999883770942688,
        0.999908447265625
      ],
      "min": [
        -0.99996918439865112,
        -0.99999141693115234,
        -0.99996918439865112
      ],
      "type": "VEC3"
    },
    {
      "bufferView": 1,
      "componentType": 5126,
      "count": 65532,
      "max": [
        0.91576802730560303,
        1
      ],
      "min": [
        0,
        0
      ],
      "type": "VEC2"
    },
    {
      "bufferView": 0,
      "componentType": 5125,
      "count": 367602,
      "max": [
        65531
      ],
      "min": [
        0
      ],
      "type": "SCALAR"
    },
    {
      "bufferView": 2,
      "byteOffset": 1572768,
      "componentType": 5126,
      "count": 11208,
      "max": [
        0.77007597684860229,
        10.210021018981934,
        1.193079948425293
      ],
      "min": [
        -0.43152099847793579,
        9.4062814712524414,
        -1.1206899881362915
      ],
      "type": "VEC3"
    },
    {
      "bufferView": 2,
      "byteOffset": 1707264,
      "componentType": 5126,
      "count": 11208,
      "max": [
        0.99991673231124878,
        0.99994963407516479,
        0.99969667196273804
      ],
      "min": [
        -0.99996918439865112,
        -0.99992996454238892,
        -0.99743747711181641
      ],
      "type": "VEC3"
    },
    {
      "bufferView": 1,
      "byteOffset": 524256,
      "componentType": 5126,
      "count": 11208,
      "max": [
        0.67140698432922363,
        0.99758398532867432
      ],
      "min": [
        0.0010699999984353781,
        0.04922499880194664
      ],
      "type": "VEC2"
    },
    {
      "bufferView": 0,
      "byteOffset": 1470408,
      "componentType": 5125,
      "count": 48978,
      "max": [
        11207
      ],
      "min": [
        0
      ],
      "type": "SCALAR"
    }
  ],
  "asset": {
    "extras": {
      "author": "Digital Atlas of Ancient Life (https://sketchfab.com/DigitalAtlasOfAncientLife)",
      "license": "CC0-1.0 (http://creativecommons.org/publicdomain/zero/1.0/)",
      "source": "https://sketchfab.com/3d-models/asteroid-starfish-or-seastar-32de6a92ad104e20aaa841c8e3eef93f",
      "title": "Asteroid: starfish or seastar"
    },
    "generator": "Sketchfab-7.80.0",
    "version": "2.0"
  },
  "bufferViews": [
    {
      "buffer": 0,
      "byteLength": 1666320,
      "byteOffset": 0,
      "name": "floatBufferViews",
      "target": 34963
    },
    {
      "buffer": 0,
      "byteLength": 613920,
      "byteOffset": 1666320,
      "byteStride": 8,
      "name": "floatBufferViews",
      "target": 34962
    },
    {
      "buffer": 0,
      "byteLength": 1841760,
      "byteOffset": 2280240,
      "byteStride": 12,
      "name": "floatBufferViews",
      "target": 34962
    }
  ],
  "buffers": [
    {
      "byteLength": 4122000,
      "uri": "scene.bin"
    }
  ],
  "extensionsUsed": [
    "KHR_materials_unlit"
  ],
  "images": [
    {
      "uri": "textures/PRI_Starfish_baseColor.jpeg"
    }
  ],
  "materials": [
    {
      "doubleSided": true,
      "emissiveFactor": [
        0,
        0,
        0
      ],
      "extensions": {
        "KHR_materials_unlit": {}
      },
      "name": "PRI_Starfish",
      "pbrMetallicRoughness": {
        "baseColorFactor": [
          1,
          1,
          1,
          1
        ],
        "baseColorTexture": {
          "index": 0,
          "texCoord": 0
        },
        "metallicFactor": 0,
        "roughnessFactor": 1
      }
    }
  ],
  "meshes": [
    {
      "primitives": [
        {
          "attributes": {
            "NORMAL": 1,
            "POSITION": 0,
            "TEXCOORD_0": 2
          },
          "indices": 3,
          "material": 0,
          "mode": 4
        }
      ]
    },
    {
      "primitives": [
        {
          "attributes": {
            "NORMAL": 5,
            "POSITION": 4,
            "TEXCOORD_0": 6
          },
          "indices": 7,
          "material": 0,
          "mode": 4
        }
      ]
    }
  ],
  "nodes": [
    {
      "children": [
        1
      ],
      "name": "RootNode (gltf orientation matrix)",
      "rotation": [
        -0.70710678118654746,
        -0,
        -0,
        0.70710678118654757
      ]
    },
    {
      "children": [
        2
      ],
      "matrix": [
        -0.44987604022026062,
        0.74525213241577148,
        0.49214920401573181,
        0,
        0.89166158437728882,
        0.34363898634910583,
        0.29470637440681458,
        0,
        0.050508894026279449,
        0.57141190767288208,
        -0.81910765171051025,
        0,
        -9.0515966415405273,
        6.5359477996826172,
        -2.6085155010223389,
        1
      ],
      "name": "RootNode (model correction matrix)"
    },
    {
      "children": [
        3,
        4
      ],
      "name": "PRI_Starfish.obj.cleaner.materialmerger.gles"
    },
    {
      "mesh": 0,
      "name": ""
    },
    {
      "mesh": 1,
      "name": ""
    }
  ],
  "samplers": [
    {
      "magFilter": 9729,
      "minFilter": 9987,
      "wrapS": 10497,
      "wrapT": 10497
    }
  ],
  "scene": 0,
  "scenes": [
    {
      "name": "OSG_Scene",
      "nodes": [
        0
      ]
    }
  ],
  "textures": [
    {
      "sampler": 0,
      "source": 0
    }
  ]
}

