{
  "accessors": [
    {
      "bufferView": 2,
      "componentType": 5126,
      "count": 35708,
      "max": [
        6.2284998893737793,
        6.1767001152038574,
        12.89799976348877
      ],
      "min": [
        -6.0303001403808594,
        -9.9591999053955078,
        -11.202099800109863
      ],
      "type": "VEC3"
    },
    {
      "bufferView": 2,
      "byteOffset": 428496,
      "componentType": 5126,
      "count": 35708,
      "max": [
        0.99998676776885986,
        0.99931740760803223,
        0.99947553873062134
      ],
      "min": [
        -0.99988353252410889,
        -0.99999427795410156,
        -0.99874776601791382
      ],
      "type": "VEC3"
    },
    {
      "bufferView": 3,
      "componentType": 5126,
      "count": 35708,
      "max": [
        0.99998903274536133,
        0.99994057416915894,
        0.99998706579208374,
        1
      ],
      "min": [
        -0.99999815225601196,
        -0.99995714426040649,
        -0.99999552965164185,
        -1
      ],
      "type": "VEC4"
    },
    {
      "bufferView": 1,
      "componentType": 5126,
      "count": 35708,
      "max": [
        0.99180001020431519,
        1.0220999717712402
      ],
      "min": [
        0.00050000002374872565,
        0.00050000002374872565
      ],
      "type": "VEC2"
    },
    {
      "bufferView": 0,
      "componentType": 5125,
      "count": 53439,
      "max": [
        35707
      ],
      "min": [
        0
      ],
      "type": "SCALAR"
    }
  ],
  "asset": {
    "extras": {
      "author": "Kerry3D @DH_Age (https://sketchfab.com/CoKerry3D)",
      "license": "CC0-1.0 (http://creativecommons.org/publicdomain/zero/1.0/)",
      "source": "https://sketchfab.com/3d-models/crag-ogham-stone-ke048-016-5b6aafd3d163428da76c9e93a2af63de",
      "title": "CRAG - Ogham Stone - KE048-016"
    },
    "generator": "Sketchfab-7.82.0",
    "version": "2.0"
  },
  "bufferViews": [
    {
      "buffer": 0,
      "byteLength": 213756,
      "byteOffset": 0,
      "name": "floatBufferViews",
      "target": 34963
    },
    {
      "buffer": 0,
      "byteLength": 285664,
      "byteOffset": 213756,
      "byteStride": 8,
      "name": "floatBufferViews",
      "target": 34962
    },
    {
      "buffer": 0,
      "byteLength": 856992,
      "byteOffset": 499420,
      "byteStride": 12,
      "name": "floatBufferViews",
      "target": 34962
    },
    {
      "buffer": 0,
      "byteLength": 571328,
      "byteOffset": 1356412,
      "byteStride": 16,
      "name": "floatBufferViews",
      "target": 34962
    }
  ],
  "buffers": [
    {
      "byteLength": 1927740,
      "uri": "scene.bin"
    }
  ],
  "images": [
    {
      "uri": "textures/Material__111_baseColor.jpeg"
    },
    {
      "uri": "textures/Material__111_metallicRoughness.png"
    },
    {
      "uri": "textures/Material__111_normal.png"
    }
  ],
  "materials": [
    {
      "doubleSided": true,
      "name": "Material__111",
      "normalTexture": {
        "index": 2,
        "scale": 1,
        "texCoord": 0
      },
      "occlusionTexture": {
        "index": 1,
        "strength": 1,
        "texCoord": 0
      },
      "pbrMetallicRoughness": {
        "baseColorFactor": [
          1,
          1,
          1,
          1
        ],
        "baseColorTexture": {
          "index": 0,
          "texCoord": 0
        },
        "metallicFactor": 0,
        "metallicRoughnessTexture": {
          "index": 1,
          "texCoord": 0
        },
        "roughnessFactor": 0.59999999999999998
      }
    }
  ],
  "meshes": [
    {
      "primitives": [
        {
          "attributes": {
            "NORMAL": 1,
            "POSITION": 0,
            "TANGENT": 2,
            "TEXCOORD_0": 3
          },
          "indices": 4,
          "material": 0,
          "mode": 4
        }
      ]
    }
  ],
  "nodes": [
    {
      "children": [
        1
      ],
      "name": "RootNode (gltf orientation matrix)",
      "rotation": [
        -0.70710678118654746,
        -0,
        -0,
        0.70710678118654757
      ]
    },
    {
      "children": [
        2
      ],
      "matrix": [
        -0.013710676692426205,
        -0.99911540746688843,
        -0.039754163473844528,
        0,
        0.99431121349334717,
        -0.0094232456758618355,
        -0.1060962975025177,
        0,
        0.10562783479690552,
        -0.040982663631439209,
        0.99356085062026978,
        0,
        0.50403428077697754,
        -8.7286500930786133,
        -3.3749914169311523,
        1
      ],
      "name": "RootNode (model correction matrix)"
    },
    {
      "children": [
        3
      ],
      "name": "Crag_Model_Low.obj.cleaner.materialmerger.gles"
    },
    {
      "mesh": 0,
      "name": ""
    }
  ],
  "samplers": [
    {
      "magFilter": 9729,
      "minFilter": 9987,
      "wrapS": 10497,
      "wrapT": 10497
    }
  ],
  "scene": 0,
  "scenes": [
    {
      "name": "OSG_Scene",
      "nodes": [
        0
      ]
    }
  ],
  "textures": [
    {
      "sampler": 0,
      "source": 0
    },
    {
      "sampler": 0,
      "source": 1
    },
    {
      "sampler": 0,
      "source": 2
    }
  ]
}

